<svg xmlns="http://www.w3.org/2000/svg" xmlns:xlink="http://www.w3.org/1999/xlink" width="100" height="100" viewBox="0 0 100 100">
    <defs>
        <filter id="Subtraction_1" x="-9.001" y="-6" width="118.001" height="118" filterUnits="userSpaceOnUse">
            <feOffset dy="3" input="SourceAlpha"/>
            <feGaussianBlur stdDeviation="3" result="blur"/>
            <feFlood flood-opacity="0.18"/>
            <feComposite operator="in" in2="blur"/>
            <feComposite in="SourceGraphic"/>
        </filter>
        <filter id="Ellipse_1" x="22" y="25" width="56" height="56" filterUnits="userSpaceOnUse">
            <feOffset dy="3" input="SourceAlpha"/>
            <feGaussianBlur stdDeviation="3" result="blur-2"/>
            <feFlood flood-opacity="0.149"/>
            <feComposite operator="in" in2="blur-2"/>
            <feComposite in="SourceGraphic"/>
        </filter>
        <clipPath id="clip-Custom_Size_1">
            <rect width="100" height="100"/>
        </clipPath>
    </defs>
    <g id="Custom_Size_1" data-name="Custom Size – 1" clip-path="url(#clip-Custom_Size_1)">
        <rect width="100" height="100" fill="rgba(255,255,255,0)"/>
        <g transform="matrix(1, 0, 0, 1, 0, 0)" filter="url(#Subtraction_1)">
            <g id="Subtraction_1-2" data-name="Subtraction 1" transform="translate(-4)" fill="#fdb813">
                <path d="M 55.49980545043945 99.49990081787109 L 52.50020217895508 99.49990081787109 L 52.50020217895508 80.46379852294922 C 52.99899291992188 80.4879150390625 53.50149536132813 80.50009918212891 54.00000381469727 80.50009918212891 C 54.49814605712891 80.50009918212891 55.00061416625977 80.48790740966797 55.49980545043945 80.46378326416016 L 55.49980545043945 99.49990081787109 Z M 23.65296173095703 81.87324523925781 L 21.53216552734375 79.75176239013672 L 31.11791229248047 70.166015625 C 31.77850914001465 70.91482543945313 32.47931671142578 71.63513946533203 33.20991897583008 72.31627655029297 L 23.65296173095703 81.87324523925781 Z M 82.69830322265625 81.82020568847656 L 73.94979095458984 73.07167053222656 C 74.70513916015625 72.41778564453125 75.43235778808594 71.72341156005859 76.12040710449219 70.99909973144531 L 84.81990051269531 79.69860076904297 L 82.69830322265625 81.82020568847656 Z M 103.5004043579102 51.50020217895508 L 84.46427917480469 51.50020217895508 C 84.48841094970703 51.001220703125 84.50060272216797 50.49874877929688 84.50060272216797 50.00040435791016 C 84.50060272216797 49.50177001953125 84.48839569091797 48.99899673461914 84.46424102783203 48.49969863891602 L 103.5004043579102 48.49969863891602 L 103.5004043579102 51.50020217895508 Z M 23.53659248352051 51.50020217895508 L 4.499603748321533 51.50020217895508 L 4.499603748321533 48.49969863891602 L 23.53663635253906 48.49969863891602 C 23.51250267028809 48.99876022338867 23.50031089782715 49.50152969360352 23.50031089782715 50.00040435791016 C 23.50031089782715 50.49918746948242 23.51248550415039 51.00162887573242 23.53659248352051 51.50020217895508 Z M 30.92911720275879 30.05014228820801 L 21.18036651611328 20.30135536193848 L 23.30184745788574 18.1805534362793 L 33.00129318237305 27.8799991607666 C 32.2770881652832 28.56795310974121 31.5828685760498 29.29498863220215 30.92911720275879 30.05014228820801 Z M 76.31709289550781 29.20999908447266 C 75.63578796386719 28.47920608520508 74.91521453857422 27.77813339233398 74.16638946533203 27.11750984191895 L 83.05020141601563 18.23370933532715 L 85.17180633544922 20.35529708862305 L 76.31709289550781 29.20999908447266 Z M 55.49980545043945 19.53652191162109 C 55.00429153442383 19.51214599609375 54.50151824951172 19.49980354309082 54.00000381469727 19.49980354309082 C 53.5016975402832 19.49980354309082 52.99956130981445 19.5119743347168 52.50124359130859 19.53605270385742 L 52.50022888183594 0.5000037550926208 L 55.49980545043945 0.5000037550926208 L 55.49980545043945 19.53652191162109 Z" stroke="none"/>
                <path d="M 54.99980545043945 98.99990081787109 L 54.99980545043945 80.98417663574219 C 54.66611099243164 80.99476623535156 54.33209228515625 81.00009918212891 54.00000381469727 81.00009918212891 C 53.6677360534668 81.00009918212891 53.3337516784668 80.99476623535156 53.00020217895508 80.98418426513672 L 53.00020217895508 98.99990081787109 L 54.99980545043945 98.99990081787109 M 23.65301895141602 81.16608428955078 L 32.49325942993164 72.32582855224609 C 32.0135383605957 71.86345672607422 31.54749488830566 71.38465118408203 31.09831428527832 70.89270782470703 L 22.23920822143555 79.75181579589844 L 23.65301895141602 81.16608428955078 M 82.69830322265625 81.11309814453125 L 84.11279296875 79.6986083984375 L 76.12660217285156 71.71240234375 C 75.65962219238281 72.18806457519531 75.17639923095703 72.64981079101563 74.67997741699219 73.09475708007813 L 82.69830322265625 81.11309814453125 M 103.0004043579102 51.00020217895508 L 103.0004043579102 48.99969863891602 L 84.98465728759766 48.99969863891602 C 84.99526214599609 49.33363723754883 85.00060272216797 49.66790771484375 85.00060272216797 50.00040435791016 C 85.00060272216797 50.33259582519531 84.99526977539063 50.66658020019531 84.98468017578125 51.00020217895508 L 103.0004043579102 51.00020217895508 M 23.01620864868164 51.00020217895508 C 23.00563621520996 50.66677856445313 23.00031089782715 50.33275985717773 23.00031089782715 50.00040435791016 C 23.00031089782715 49.66781616210938 23.00564384460449 49.33351898193359 23.01623725891113 48.99969863891602 L 4.999603748321533 48.99969863891602 L 4.999603748321533 51.00020217895508 L 23.01620864868164 51.00020217895508 M 30.90605354309082 29.31994438171387 C 31.35084915161133 28.82370758056641 31.81246376037598 28.34064674377441 32.28799057006836 27.8737907409668 L 23.30180358886719 18.88760375976563 L 21.88753700256348 20.30141830444336 L 30.90605354309082 29.31994438171387 M 76.32665252685547 28.49333000183105 L 84.46469879150391 20.35529899597168 L 83.05020141601563 18.94081497192383 L 74.89308929443359 27.0979175567627 C 75.38518524169922 27.54724502563477 75.86407470703125 28.01337814331055 76.32665252685547 28.49333000183105 M 54.99980545043945 19.01582527160645 L 54.99980545043945 1.000003695487976 L 53.0002555847168 1.000003695487976 L 53.00121307373047 19.01567649841309 C 53.33438491821289 19.00511741638184 53.66799545288086 18.99980354309082 54.00000381469727 18.99980354309082 C 54.33358001708984 18.99980354309082 54.66777038574219 19.00518226623535 54.99980545043945 19.01582527160645 M 55.99980545043945 99.99990081787109 L 55.99880218505859 99.99990081787109 L 52.00020217895508 99.99990081787109 L 52.00020217895508 79.93447113037109 C 52.65640258789063 79.97768402099609 53.32888412475586 80.00009918212891 54.00000381469727 80.00009918212891 C 54.66488265991211 80.00009918212891 55.33771133422852 79.97802734375 55.99980545043945 79.93448638916016 L 55.99980545043945 99.99889373779297 L 55.99980545043945 99.99990081787109 Z M 23.65291023254395 82.58039093017578 L 23.65219116210938 82.57969665527344 L 20.82511138916016 79.75169372558594 L 31.14408302307129 69.43272399902344 C 32.00433731079102 70.44361877441406 32.94209671020508 71.408447265625 33.93280410766602 72.30049896240234 L 23.65361785888672 82.57969665527344 L 23.65291023254395 82.58039093017578 Z M 82.69831085205078 82.52729797363281 L 82.69759368896484 82.52660369873047 L 73.21289825439453 73.04188537597656 C 74.23249816894531 72.19081878662109 75.20655059814453 71.26197814941406 76.10810089111328 70.27968597412109 L 85.52700042724609 79.69860076904297 L 82.69902038574219 82.52660369873047 L 82.69831085205078 82.52729797363281 Z M 104.0004043579102 52.00020217895508 L 103.9994049072266 52.00020217895508 L 83.93496704101563 52.00020217895508 C 83.97817993164063 51.34381866455078 84.00060272216797 50.67133712768555 84.00060272216797 50.00040435791016 C 84.00060272216797 49.33467102050781 83.97850036621094 48.66154861450195 83.93491363525391 47.99969863891602 L 104.0004043579102 47.99969863891602 L 104.0004043579102 51.99920272827148 L 104.0004043579102 52.00020217895508 Z M 24.0659236907959 52.00020217895508 L 24.06485748291016 52.00020217895508 L 3.999603748321533 52.00020217895508 L 3.999603748321533 47.99969863891602 L 24.06596374511719 47.99969863891602 C 24.02272415161133 48.65624237060547 24.00031089782715 49.32902908325195 24.00031089782715 50.00040435791016 C 24.00031089782715 50.666015625 24.0223503112793 51.33848190307617 24.06585693359375 51.99913787841797 L 24.0659236907959 52.00020217895508 Z M 30.95890998840332 30.7870044708252 L 30.95813751220703 30.7862434387207 L 20.47320365905762 20.30129623413086 L 23.30191040039063 17.47349739074707 L 33.72071075439453 27.89229774475098 C 32.74246978759766 28.79013633728027 31.81352424621582 29.76328468322754 30.95961761474609 30.78616333007813 L 30.95890998840332 30.7870044708252 Z M 76.30130004882813 29.93288421630859 L 76.30060577392578 29.93209648132324 C 75.41034698486328 28.9434700012207 74.44560241699219 28.00531005859375 73.43311309814453 27.14368438720703 L 83.05020141601563 17.52660369873047 L 85.87891387939453 20.35529708862305 L 76.30205535888672 29.93213653564453 L 76.30130004882813 29.93288421630859 Z M 55.99980545043945 20.06648445129395 L 55.99873733520508 20.0664176940918 C 55.3427619934082 20.022216796875 54.67029571533203 19.99980354309082 54.00000381469727 19.99980354309082 C 53.33427047729492 19.99980354309082 52.66178894042969 20.02186965942383 52.00127029418945 20.06536293029785 L 52.00020217895508 3.742268972928287e-06 L 55.99980545043945 3.742268972928287e-06 L 55.99980545043945 20.06541633605957 L 55.99980545043945 20.06648445129395 Z" stroke="none" fill="#fdb813"/>
            </g>
        </g>
        <g transform="matrix(1, 0, 0, 1, 0, 0)" filter="url(#Ellipse_1)">
            <g id="Ellipse_1-2" data-name="Ellipse 1" transform="translate(31 31)" fill="#fdb813" stroke="#fdb813" stroke-width="1">
                <circle cx="19" cy="19" r="19" stroke="none"/>
                <circle cx="19" cy="19" r="18.5" fill="none"/>
            </g>
        </g>
    </g>
</svg>
